<svg width="45" height="44" viewBox="0 0 45 44" fill="none" xmlns="http://www.w3.org/2000/svg">
<rect x="0.832031" y="0.5" width="43" height="43" rx="5.5" fill="#1A1A1A"/>
<rect x="0.832031" y="0.5" width="43" height="43" rx="5.5" stroke="#262626"/>
<g clip-path="url(#clip0_315_6253)">
<path d="M30.8516 12H13.8086C12.9922 12 12.332 12.6445 12.332 13.4414V30.5547C12.332 31.3516 12.9922 32 13.8086 32H30.8516C31.668 32 32.332 31.3516 32.332 30.5586V13.4414C32.332 12.6445 31.668 12 30.8516 12ZM18.2656 29.043H15.2969V19.4961H18.2656V29.043ZM16.7812 18.1953C15.8281 18.1953 15.0586 17.4258 15.0586 16.4766C15.0586 15.5273 15.8281 14.7578 16.7812 14.7578C17.7305 14.7578 18.5 15.5273 18.5 16.4766C18.5 17.4219 17.7305 18.1953 16.7812 18.1953ZM29.375 29.043H26.4102V24.4023C26.4102 23.2969 26.3906 21.8711 24.8672 21.8711C23.3242 21.8711 23.0898 23.0781 23.0898 24.3242V29.043H20.1289V19.4961H22.9727V20.8008H23.0117C23.4062 20.0508 24.375 19.2578 25.8164 19.2578C28.8203 19.2578 29.375 21.2344 29.375 23.8047V29.043Z" fill="white"/>
</g>
<defs>
<clipPath id="clip0_315_6253">
<rect width="20" height="20" fill="white" transform="translate(12.332 12)"/>
</clipPath>
</defs>
</svg>
