<svg width="45" height="44" viewBox="0 0 45 44" fill="none" xmlns="http://www.w3.org/2000/svg">
<rect x="0.832031" y="0.5" width="43" height="43" rx="5.5" fill="#1A1A1A"/>
<rect x="0.832031" y="0.5" width="43" height="43" rx="5.5" stroke="#262626"/>
<g clip-path="url(#clip0_315_6247)">
<path d="M32.332 22C32.332 16.4771 27.8549 12 22.332 12C16.8092 12 12.332 16.4771 12.332 22C12.332 26.9912 15.9889 31.1283 20.7695 31.8785V24.8906H18.2305V22H20.7695V19.7969C20.7695 17.2906 22.2625 15.9062 24.5467 15.9062C25.6404 15.9062 26.7852 16.1016 26.7852 16.1016V18.5625H25.5242C24.282 18.5625 23.8945 19.3334 23.8945 20.125V22H26.668L26.2246 24.8906H23.8945V31.8785C28.6752 31.1283 32.332 26.9912 32.332 22Z" fill="white"/>
</g>
<defs>
<clipPath id="clip0_315_6247">
<rect width="20" height="20" fill="white" transform="translate(12.332 12)"/>
</clipPath>
</defs>
</svg>
