<svg width="45" height="44" viewBox="0 0 45 44" fill="none" xmlns="http://www.w3.org/2000/svg">
<rect x="0.832031" y="0.5" width="43" height="43" rx="5.5" fill="#1A1A1A"/>
<rect x="0.832031" y="0.5" width="43" height="43" rx="5.5" stroke="#262626"/>
<g clip-path="url(#clip0_315_6250)">
<path d="M18.6238 30.125C26.1691 30.125 30.2973 23.8723 30.2973 18.4516C30.2973 18.2758 30.2934 18.0961 30.2855 17.9203C31.0886 17.3396 31.7816 16.6202 32.332 15.7961C31.5841 16.1289 30.7901 16.3462 29.977 16.4406C30.8331 15.9275 31.4741 15.1213 31.7812 14.1715C30.9758 14.6488 30.095 14.9855 29.1766 15.1672C28.5577 14.5097 27.7395 14.0743 26.8484 13.9284C25.9574 13.7825 25.043 13.9342 24.2468 14.3601C23.4506 14.786 22.8169 15.4623 22.4436 16.2845C22.0703 17.1066 21.9782 18.0289 22.1816 18.9086C20.5508 18.8268 18.9553 18.4031 17.4987 17.6651C16.0421 16.9271 14.7568 15.8912 13.7262 14.6246C13.2024 15.5277 13.0421 16.5964 13.2779 17.6134C13.5137 18.6305 14.1279 19.5196 14.9957 20.1C14.3442 20.0793 13.707 19.9039 13.1367 19.5883V19.6391C13.1361 20.5868 13.4638 21.5055 14.064 22.239C14.6641 22.9725 15.4998 23.4755 16.4289 23.6625C15.8254 23.8276 15.192 23.8517 14.5777 23.7328C14.8399 24.5479 15.35 25.2608 16.0368 25.772C16.7237 26.2832 17.553 26.5672 18.409 26.5844C16.9557 27.726 15.1605 28.3451 13.3125 28.3422C12.9848 28.3417 12.6574 28.3216 12.332 28.2821C14.2094 29.4865 16.3933 30.1262 18.6238 30.125Z" fill="white"/>
</g>
<defs>
<clipPath id="clip0_315_6250">
<rect width="20" height="20" fill="white" transform="translate(12.332 12)"/>
</clipPath>
</defs>
</svg>
